<?xml version="1.0" standalone="no"?><!-- Generator: Gravit.io --><svg xmlns="http://www.w3.org/2000/svg" xmlns:xlink="http://www.w3.org/1999/xlink" style="isolation:isolate" viewBox="144 193.83 85 58.34" width="85" height="58.34"><path d=" M 149.123 233.088 L 149.123 239.943 L 150.809 239.943 L 150.809 239.943 Q 153.172 239.943 154.345 239.051 L 154.345 239.051 L 154.345 239.051 Q 155.519 238.158 155.519 236.452 L 155.519 236.452 L 155.519 236.452 Q 155.519 234.731 154.535 233.909 L 154.535 233.909 L 154.535 233.909 Q 153.552 233.088 151.453 233.088 L 151.453 233.088 L 149.123 233.088 Z  M 160.691 236.279 L 160.691 236.279 L 160.691 236.279 Q 160.691 240.007 158.254 241.981 L 158.254 241.981 L 158.254 241.981 Q 155.816 243.956 151.321 243.956 L 151.321 243.956 L 149.123 243.956 L 149.123 252.17 L 144 252.17 L 144 229.075 L 151.718 229.075 L 151.718 229.075 Q 156.114 229.075 158.402 230.884 L 158.402 230.884 L 158.402 230.884 Q 160.691 232.693 160.691 236.279 Z  M 185.031 229.075 L 185.031 252.17 L 179.924 252.17 L 179.924 242.202 L 170.356 242.202 L 170.356 252.17 L 165.233 252.17 L 165.233 229.075 L 170.356 229.075 L 170.356 238.127 L 179.924 238.127 L 179.924 229.075 L 185.031 229.075 Z  M 205.024 248.126 L 205.024 252.17 L 191.109 252.17 L 191.109 229.075 L 205.024 229.075 L 205.024 233.088 L 196.232 233.088 L 196.232 238.158 L 204.413 238.158 L 204.413 242.171 L 196.232 242.171 L 196.232 248.126 L 205.024 248.126 Z  M 219.25 242.818 L 223.827 229.075 L 229 229.075 L 220.787 252.17 L 215.201 252.17 L 207.004 229.075 L 212.177 229.075 L 216.721 242.818 L 216.721 242.818 Q 217.101 244.035 217.506 245.654 L 217.506 245.654 L 217.506 245.654 Q 217.911 247.273 218.01 247.905 L 218.01 247.905 L 218.01 247.905 Q 218.192 246.452 219.25 242.818 L 219.25 242.818 Z  M 163.798 193.83 L 163.798 216.925 L 158.692 216.925 L 158.692 206.957 L 149.123 206.957 L 149.123 216.925 L 144 216.925 L 144 193.83 L 149.123 193.83 L 149.123 202.881 L 158.692 202.881 L 158.692 193.83 L 163.798 193.83 Z  M 172.388 193.83 L 177.396 203.34 L 182.436 193.83 L 187.956 193.83 L 179.941 207.936 L 179.941 216.925 L 174.851 216.925 L 174.851 208.094 L 166.836 193.83 L 172.388 193.83 Z  M 201.917 219.831 L 201.917 222.043 L 187.87 222.043 L 187.87 219.831 L 201.917 219.831 Z " fill-rule="evenodd" fill="rgb(255,255,255)"/></svg>