<?xml version="1.0" standalone="no"?><!-- Generator: Gravit.io --><svg xmlns="http://www.w3.org/2000/svg" xmlns:xlink="http://www.w3.org/1999/xlink" style="isolation:isolate" viewBox="192.4 153.36 306.008 64.08" width="306.008" height="64.08"><path d=" M 262.68 167.976 C 258.072 167.976 254.328 169.632 251.52 172.512 L 251.52 153.36 L 240 153.36 L 240 205.2 L 251.52 205.2 L 251.52 188.424 C 251.52 181.44 254.472 178.344 258.936 178.344 C 262.68 178.344 265.2 181.224 265.2 185.472 L 265.2 205.2 L 276.648 205.2 L 276.648 183.024 C 276.648 173.952 271.032 167.976 262.68 167.976 Z  M 323.376 168.984 L 310.992 168.984 L 301.848 190.08 L 293.28 168.984 L 280.896 168.984 L 295.872 203.976 L 290.04 217.44 L 302.496 217.44 L 323.376 168.984 Z  M 350.808 167.976 C 346.128 167.976 342.384 169.416 339.576 171.936 L 339.576 169.056 L 328.056 169.056 L 328.056 217.44 L 339.576 217.44 L 339.576 202.32 C 342.384 204.84 346.128 206.28 350.808 206.28 C 360.384 206.28 368.448 198.576 368.448 187.128 C 368.448 175.752 360.384 167.976 350.808 167.976 Z  M 348.432 196.488 C 343.752 196.488 339.576 192.744 339.576 187.128 C 339.576 181.584 343.752 177.768 348.432 177.768 C 353.472 177.768 357.144 181.584 357.144 187.128 C 357.144 192.744 353.472 196.488 348.432 196.488 Z  M 397.104 167.976 C 392.496 167.976 388.752 169.632 385.944 172.512 L 385.944 153.36 L 374.424 153.36 L 374.424 205.2 L 385.944 205.2 L 385.944 188.424 C 385.944 181.44 388.896 178.344 393.36 178.344 C 397.104 178.344 399.624 181.224 399.624 185.472 L 399.624 205.2 L 411.072 205.2 L 411.072 183.024 C 411.072 173.952 405.456 167.976 397.104 167.976 Z  M 454.416 187.128 C 454.2 175.32 445.992 167.976 435.768 167.976 C 425.256 167.976 416.616 175.752 416.616 187.128 C 416.616 198.576 425.256 206.28 435.696 206.28 C 443.976 206.28 450.528 202.608 453.624 194.976 L 443.4 192.888 C 441.456 196.416 438.36 197.064 435.696 197.064 C 431.808 197.064 428.856 194.4 427.92 190.08 L 454.416 190.08 L 454.416 187.128 Z  M 435.768 177.336 C 439.08 177.336 441.96 179.136 443.04 183.024 L 428.136 183.024 C 429.216 179.352 432.528 177.336 435.768 177.336 Z  M 498.408 168.984 L 486.24 168.984 L 477.6 191.304 L 468.888 168.984 L 456.72 168.984 L 471.696 205.2 L 483.432 205.2 L 498.408 168.984 Z  M 231 188.7 L 231 178 L 192.4 178 L 192.4 188.7 L 231 188.7 Z " fill-rule="evenodd" fill="rgb(255,255,255)"/></svg>